<svg width="17" height="18" viewBox="0 0 17 18" fill="none" xmlns="http://www.w3.org/2000/svg">
<g id="ion:share-outline">
<path id="Vector" d="M11.1562 6.875H12.4844C12.8366 6.875 13.1744 7.01493 13.4235 7.264C13.6726 7.51307 13.8125 7.85088 13.8125 8.20312V14.5781C13.8125 14.9304 13.6726 15.2682 13.4235 15.5173C13.1744 15.7663 12.8366 15.9062 12.4844 15.9062H4.51562C4.16338 15.9063 3.82557 15.7663 3.5765 15.5173C3.32743 15.2682 3.1875 14.9304 3.1875 14.5781V8.20312C3.1875 7.85088 3.32743 7.51307 3.5765 7.264C3.82557 7.01493 4.16338 6.875 4.51562 6.875H5.84375M11.1562 4.75L8.5 2.09375M8.5 2.09375L5.84375 4.75M8.5 2.09375V11.1582" stroke="black" stroke-linecap="round" stroke-linejoin="round"/>
</g>
</svg>
